<svg width="230" height="28" viewBox="0 0 230 28" fill="none" xmlns="http://www.w3.org/2000/svg">
<path d="M0 18V0.299999H0.9V18H0ZM1.8 18V0.299999H4.5V18H1.8ZM5.4 18V0.299999H6.3V18H5.4ZM7.2 18V0.299999H9.9V18H7.2ZM12.6 18V0.299999H13.5V18H12.6ZM7.17 27.69C6.27 27.69 5.54 27.39 4.98 26.79L5.4 26.1L5.43 26.01L5.52 26.04C5.52 26.06 5.53 26.1 5.55 26.16C5.55 26.2 5.57 26.25 5.61 26.31C5.63 26.35 5.67 26.39 5.73 26.43C6.15 26.79 6.67 26.97 7.29 26.97C7.69 26.97 8.03 26.86 8.31 26.64C8.59 26.4 8.73 26.12 8.73 25.8C8.73 25.58 8.68 25.39 8.58 25.23C8.5 25.09 8.35 24.95 8.13 24.81C7.91 24.67 7.57 24.5 7.11 24.3C6.43 24.04 5.94 23.74 5.64 23.4C5.36 23.06 5.22 22.68 5.22 22.26C5.22 21.74 5.41 21.32 5.79 21C6.17 20.68 6.68 20.52 7.32 20.52C7.7 20.52 8.06 20.6 8.4 20.76C8.72 20.92 9.01 21.13 9.27 21.39L8.76 22.08L8.7 22.02C8.7 22 8.69 21.97 8.67 21.93C8.67 21.87 8.65 21.82 8.61 21.78C8.59 21.72 8.55 21.67 8.49 21.63C8.33 21.47 8.14 21.35 7.92 21.27C7.72 21.21 7.48 21.18 7.2 21.18C6.84 21.18 6.56 21.28 6.36 21.48C6.14 21.68 6.03 21.92 6.03 22.2C6.03 22.42 6.07 22.61 6.15 22.77C6.25 22.93 6.42 23.08 6.66 23.22C6.9 23.38 7.26 23.55 7.74 23.73C8.4 24.01 8.86 24.29 9.12 24.57C9.36 24.87 9.48 25.24 9.48 25.68C9.48 26.02 9.4 26.34 9.24 26.64C9.06 26.94 8.8 27.19 8.46 27.39C8.1 27.59 7.67 27.69 7.17 27.69ZM14.4141 18V0.299999H17.1141V18H14.4141ZM18.0141 18V0.299999H18.9141V18H18.0141ZM19.8141 18V0.299999H22.5141V18H19.8141ZM23.4141 18V0.299999H24.3141V18H23.4141ZM27.0141 18V0.299999H27.9141V18H27.0141ZM21.6141 27.69C20.8141 27.69 20.2041 27.38 19.7841 26.76C19.3441 26.14 19.1241 25.26 19.1241 24.12C19.1241 23.02 19.3441 22.15 19.7841 21.51C20.2241 20.89 20.8341 20.58 21.6141 20.58C22.3941 20.58 23.0041 20.89 23.4441 21.51C23.8841 22.15 24.1041 23.02 24.1041 24.12C24.1041 25.26 23.8841 26.14 23.4441 26.76C23.0241 27.38 22.4141 27.69 21.6141 27.69ZM21.6141 27C22.1541 27 22.5641 26.76 22.8441 26.28C23.1441 25.78 23.2941 25.06 23.2941 24.12C23.2941 23.24 23.1441 22.54 22.8441 22.02C22.5441 21.52 22.1341 21.27 21.6141 21.27C21.0941 21.27 20.6841 21.52 20.3841 22.02C20.0841 22.54 19.9341 23.24 19.9341 24.12C19.9341 25.06 20.0741 25.78 20.3541 26.28C20.6541 26.76 21.0741 27 21.6141 27ZM28.8281 18V0.299999H29.7281V18H28.8281ZM30.6281 18V0.299999H33.3281V18H30.6281ZM34.2281 18V0.299999H36.9281V18H34.2281ZM37.8281 18V0.299999H38.7281V18H37.8281ZM41.4281 18V0.299999H42.3281V18H41.4281ZM33.8981 20.61H36.1181C36.8581 20.61 37.4081 20.8 37.7681 21.18C38.1481 21.54 38.3381 22.01 38.3381 22.59C38.3381 23.15 38.1581 23.61 37.7981 23.97C37.4381 24.33 36.8981 24.51 36.1781 24.51H34.7081V27.57H33.8981V20.61ZM36.0881 23.82C36.5881 23.82 36.9481 23.71 37.1681 23.49C37.4081 23.29 37.5281 23 37.5281 22.62C37.5281 22.24 37.4081 21.94 37.1681 21.72C36.9281 21.48 36.5781 21.36 36.1181 21.36H34.7081V23.82H36.0881ZM43.2422 18V0.299999H45.9422V18H43.2422ZM46.8422 18V0.299999H47.7422V18H46.8422ZM48.6422 18V0.299999H49.5422V18H48.6422ZM52.2422 18V0.299999H54.9422V18H52.2422ZM55.8422 18V0.299999H56.7422V18H55.8422ZM48.2222 20.61H49.1222V20.7C49.0822 20.74 49.0522 20.79 49.0322 20.85C49.0322 20.89 49.0322 20.98 49.0322 21.12V23.58H51.7322V20.61H52.6622V20.7C52.6222 20.74 52.5922 20.79 52.5722 20.85C52.5722 20.89 52.5722 20.98 52.5722 21.12V27.57H51.7322V24.27H49.0322V27.57H48.2222V20.61ZM57.6562 18V0.299999H58.5563V18H57.6562ZM59.4563 18V0.299999H62.1563V18H59.4563ZM63.0563 18V0.299999H63.9563V18H63.0563ZM66.6563 18V0.299999H69.3563V18H66.6563ZM70.2563 18V0.299999H71.1563V18H70.2563ZM62.9663 26.91H64.3463V21.27H63.0563V20.61H66.5063V21.27H65.1263V26.91H66.5663V27.57H62.9663V26.91ZM72.0703 18V0.299999H74.7703V18H72.0703ZM75.6703 18V0.299999H76.5703V18H75.6703ZM77.4703 18V0.299999H78.3703V18H77.4703ZM81.0703 18V0.299999H81.9703V18H81.0703ZM82.8703 18V0.299999H85.5703V18H82.8703ZM80.3803 25.53H78.1303L77.4403 27.57H76.6603L79.2103 20.49H79.3003L81.8803 27.57H81.0703L80.3803 25.53ZM80.1703 24.93L79.2703 22.29L78.3403 24.93H80.1703ZM86.4844 18V0.299999H87.3844V18H86.4844ZM90.0844 18V0.299999H92.7844V18H90.0844ZM93.6844 18V0.299999H94.5844V18H93.6844ZM95.4844 18V0.299999H98.1844V18H95.4844ZM99.0844 18V0.299999H99.9844V18H99.0844ZM100.898 18V0.299999H101.798V18H100.898ZM104.498 18V0.299999H107.198V18H104.498ZM108.098 18V0.299999H108.998V18H108.098ZM109.898 18V0.299999H110.798V18H109.898ZM111.698 18V0.299999H114.398V18H111.698ZM105.578 20.61H106.388L108.188 25.95L109.868 20.61H110.648L108.308 27.6H107.948L105.578 20.61ZM115.312 18V0.299999H116.213V18H115.312ZM117.113 18V0.299999H119.813V18H117.113ZM120.713 18V0.299999H121.613V18H120.713ZM124.313 18V0.299999H127.013V18H124.313ZM127.913 18V0.299999H128.813V18H127.913ZM120.623 26.91H122.003V21.27H120.713V20.61H124.163V21.27H122.783V26.91H124.223V27.57H120.623V26.91ZM129.727 18V0.299999H130.627V18H129.727ZM131.527 18V0.299999H132.427V18H131.527ZM133.327 18V0.299999H136.027V18H133.327ZM136.927 18V0.299999H139.627V18H136.927ZM142.327 18V0.299999H143.227V18H142.327ZM136.447 21.3H134.497V20.61H139.297V21.3H137.257V27.57H136.447V21.3ZM144.141 18V0.299999H145.041V18H144.141ZM145.941 18V0.299999H148.641V18H145.941ZM149.541 18V0.299999H150.441V18H149.541ZM153.141 18V0.299999H155.841V18H153.141ZM156.741 18V0.299999H157.641V18H156.741ZM149.451 26.91H150.831V21.27H149.541V20.61H152.991V21.27H151.611V26.91H153.051V27.57H149.451V26.91ZM158.555 18V0.299999H159.455V18H158.555ZM160.355 18V0.299999H161.255V18H160.355ZM162.155 18V0.299999H164.855V18H162.155ZM165.755 18V0.299999H166.655V18H165.755ZM169.355 18V0.299999H172.055V18H169.355ZM163.535 20.61H164.285L167.195 25.77V20.61H168.065V20.7C168.005 20.74 167.975 20.79 167.975 20.85C167.955 20.89 167.945 20.98 167.945 21.12V27.57H167.345L164.255 22.11V27.57H163.535V20.61ZM172.969 18V0.299999H175.669V18H172.969ZM176.569 18V0.299999H177.469V18H176.569ZM178.369 18V0.299999H181.069V18H178.369ZM183.769 18V0.299999H184.669V18H183.769ZM185.569 18V0.299999H186.469V18H185.569ZM178.039 20.61H182.299V21.3H178.759V23.58H181.699V24.3H178.759V26.88H182.269V27.57H178.039V20.61ZM187.383 18V0.299999H188.283V18H187.383ZM189.183 18V0.299999H190.083V18H189.183ZM190.983 18V0.299999H193.683V18H190.983ZM194.583 18V0.299999H195.483V18H194.583ZM198.183 18V0.299999H200.883V18H198.183ZM192.363 20.61H193.113L196.023 25.77V20.61H196.893V20.7C196.833 20.74 196.803 20.79 196.803 20.85C196.783 20.89 196.773 20.98 196.773 21.12V27.57H196.173L193.083 22.11V27.57H192.363V20.61ZM201.797 18V0.299999H204.497V18H201.797ZM205.397 18V0.299999H206.297V18H205.397ZM207.197 18V0.299999H208.097V18H207.197ZM208.997 18V0.299999H209.897V18H208.997ZM212.597 18V0.299999H215.297V18H212.597ZM208.067 24.09L207.497 24.69V27.57H206.687V20.61H207.617V20.7C207.577 20.74 207.547 20.79 207.527 20.85C207.507 20.89 207.497 20.98 207.497 21.12V23.82L210.407 20.58C210.587 20.6 210.777 20.61 210.977 20.61H211.277L208.637 23.61L211.457 27.57L210.467 27.6L208.067 24.09ZM216.211 18V0.299999H218.911V18H216.211ZM219.811 18V0.299999H220.711V18H219.811ZM221.611 18V0.299999H224.311V18H221.611ZM225.211 18V0.299999H226.111V18H225.211ZM228.811 18V0.299999H229.711V18H228.811ZM223.411 27.69C222.611 27.69 222.001 27.38 221.581 26.76C221.141 26.14 220.921 25.26 220.921 24.12C220.921 23.02 221.141 22.15 221.581 21.51C222.021 20.89 222.631 20.58 223.411 20.58C224.191 20.58 224.801 20.89 225.241 21.51C225.681 22.15 225.901 23.02 225.901 24.12C225.901 25.26 225.681 26.14 225.241 26.76C224.821 27.38 224.211 27.69 223.411 27.69ZM223.411 27C223.951 27 224.361 26.76 224.641 26.28C224.941 25.78 225.091 25.06 225.091 24.12C225.091 23.24 224.941 22.54 224.641 22.02C224.341 21.52 223.931 21.27 223.411 21.27C222.891 21.27 222.481 21.52 222.181 22.02C221.881 22.54 221.731 23.24 221.731 24.12C221.731 25.06 221.871 25.78 222.151 26.28C222.451 26.76 222.871 27 223.411 27Z" fill="white"/>
</svg>
